<svg width="165" height="78" viewBox="0 0 165 78" fill="none" xmlns="http://www.w3.org/2000/svg">
<path d="M4.972 75.36L7.984 66.36H6.952L3.94 75.36H4.972ZM12.5458 66.552C10.2538 66.552 8.53778 68.196 8.53778 70.908C8.53778 73.548 10.1218 75.168 12.4258 75.168C14.5498 75.168 15.8938 74.016 16.0738 72.252L16.0858 72.132H14.4418L14.4178 72.252C14.2018 73.284 13.5778 73.932 12.4978 73.932C11.2378 73.932 10.2898 72.876 10.2898 70.812C10.2898 68.928 11.1898 67.788 12.5218 67.788C13.6258 67.788 14.2498 68.388 14.4538 69.408L14.4778 69.528H16.1338L16.1218 69.408C15.9538 67.776 14.7898 66.552 12.5458 66.552ZM20.5471 68.46C20.1871 68.46 19.7671 68.604 19.4551 68.892L18.9511 69.78V68.616H17.2951V75H18.9511V72.072C18.9511 70.356 19.6351 69.744 21.0151 69.84V68.508C20.8711 68.472 20.7391 68.46 20.5471 68.46ZM24.6751 68.448C22.5511 68.448 21.3631 69.864 21.3631 71.808C21.3631 73.74 22.5511 75.168 24.6751 75.168C26.7991 75.168 27.9871 73.74 27.9871 71.808C27.9871 69.864 26.7991 68.448 24.6751 68.448ZM24.6751 74.004C23.6791 74.004 23.0791 73.176 23.0791 71.808C23.0791 70.428 23.6791 69.612 24.6751 69.612C25.6711 69.612 26.2711 70.428 26.2711 71.808C26.2711 73.176 25.6711 74.004 24.6751 74.004ZM32.7804 75H34.4004C34.3044 74.292 34.2804 73.86 34.2804 73.38V71.316C34.2804 70.968 34.2684 70.632 34.2444 70.332C34.1484 69.228 33.4764 68.448 31.6884 68.448C30.1644 68.448 29.0004 69.264 28.9524 70.704L30.5604 70.692C30.6084 69.996 30.9684 69.612 31.6284 69.612C32.2764 69.612 32.5644 69.936 32.6124 70.38C32.6364 70.596 32.6364 70.788 32.6364 70.98V71.112H32.2284C29.9124 71.112 28.7124 71.904 28.7124 73.308C28.7124 74.52 29.6604 75.168 30.7644 75.168C31.3644 75.168 31.9044 75.048 32.3484 74.748L32.6604 74.064L32.7804 75ZM31.4004 74.004C30.8124 74.004 30.4284 73.74 30.4284 73.176C30.4284 72.336 31.3164 72.036 32.6364 72.132V72.648C32.6364 73.536 32.0724 74.004 31.4004 74.004ZM37.7907 69.756H39.1107V68.664H37.7907V67.092H36.1347V68.664H35.1987V69.756H36.1347V72.9C36.1347 73.26 36.1347 73.536 36.1587 73.824C36.2307 74.724 36.6747 75.132 37.9107 75.132C38.2827 75.132 38.6307 75.108 39.0027 75.048V73.968C38.0787 74.04 37.8507 73.896 37.8027 73.272C37.7907 73.104 37.7907 72.924 37.7907 72.708V69.756ZM40.9746 66.24C40.4346 66.24 40.0626 66.6 40.0626 67.116C40.0626 67.644 40.4346 67.992 40.9746 67.992C41.5146 67.992 41.8866 67.644 41.8866 67.116C41.8866 66.6 41.5146 66.24 40.9746 66.24ZM41.8026 75V68.616H40.1466V75H41.8026ZM47.0421 75H48.6621C48.5661 74.292 48.5421 73.86 48.5421 73.38V71.316C48.5421 70.968 48.5301 70.632 48.5061 70.332C48.4101 69.228 47.7381 68.448 45.9501 68.448C44.4261 68.448 43.2621 69.264 43.2141 70.704L44.8221 70.692C44.8701 69.996 45.2301 69.612 45.8901 69.612C46.5381 69.612 46.8261 69.936 46.8741 70.38C46.8981 70.596 46.8981 70.788 46.8981 70.98V71.112H46.4901C44.1741 71.112 42.9741 71.904 42.9741 73.308C42.9741 74.52 43.9221 75.168 45.0261 75.168C45.6261 75.168 46.1661 75.048 46.6101 74.748L46.9221 74.064L47.0421 75ZM45.6621 74.004C45.0741 74.004 44.6901 73.74 44.6901 73.176C44.6901 72.336 45.5781 72.036 46.8981 72.132V72.648C46.8981 73.536 46.3341 74.004 45.6621 74.004ZM56.0244 70.236C55.8924 69.12 55.1124 68.448 53.7564 68.448C53.1444 68.448 52.6764 68.568 52.2204 68.892L51.7284 69.648V68.616H50.0724V75H51.7284V72.084C51.7284 70.308 52.3644 69.612 53.1684 69.612C53.9724 69.612 54.3444 70.068 54.3924 70.74C54.4164 71.064 54.4164 71.364 54.4164 71.628V75H56.0724V71.4C56.0724 70.884 56.0604 70.56 56.0244 70.236ZM63.6496 68.448C63.0016 68.448 62.3536 68.604 61.9936 68.892L61.5136 69.588V68.616H59.8576V77.352H61.5136V74.148L61.9336 74.808C62.2576 75.036 62.9056 75.168 63.4336 75.168C65.0776 75.168 66.4936 73.992 66.4936 71.688C66.4936 69.804 65.4376 68.448 63.6496 68.448ZM63.1096 74.004C62.3416 74.004 61.5136 73.488 61.5136 72.036V71.736C61.5136 70.176 62.2576 69.612 63.1696 69.612C64.1536 69.612 64.7776 70.488 64.7776 71.796C64.7776 73.272 64.0696 74.004 63.1096 74.004ZM69.1765 66.18H67.5205V72.948C67.5205 73.368 67.5205 73.668 67.5445 73.956C67.5805 74.784 68.0965 75.084 68.9125 75.084C69.2845 75.084 69.6085 75.072 69.9325 75.036V73.896C69.3685 73.932 69.2245 73.824 69.1885 73.5C69.1765 73.332 69.1765 73.164 69.1765 72.912V66.18ZM71.6281 73.152C71.0401 73.152 70.6321 73.572 70.6321 74.16C70.6321 74.748 71.0401 75.168 71.6281 75.168C72.2281 75.168 72.6361 74.748 72.6361 74.16C72.6361 73.572 72.2281 73.152 71.6281 73.152ZM78.0415 67.8C78.1015 67.26 78.6535 67.044 79.4335 67.188V66.036C79.2175 65.988 78.9655 65.952 78.7015 65.952C77.1895 65.952 76.4815 66.588 76.3855 67.668C76.3615 67.884 76.3615 68.184 76.3615 68.4V68.664H75.6775V69.756H76.3615V75H78.0175V69.756H79.3255V68.664H78.0175V68.352C78.0175 68.184 78.0175 67.968 78.0415 67.8ZM83.1282 68.448C81.0042 68.448 79.8162 69.864 79.8162 71.808C79.8162 73.74 81.0042 75.168 83.1282 75.168C85.2522 75.168 86.4402 73.74 86.4402 71.808C86.4402 69.864 85.2522 68.448 83.1282 68.448ZM83.1282 74.004C82.1322 74.004 81.5322 73.176 81.5322 71.808C81.5322 70.428 82.1322 69.612 83.1282 69.612C84.1242 69.612 84.7242 70.428 84.7242 71.808C84.7242 73.176 84.1242 74.004 83.1282 74.004ZM90.7775 68.46C90.4175 68.46 89.9975 68.604 89.6855 68.892L89.1815 69.78V68.616H87.5255V75H89.1815V72.072C89.1815 70.356 89.8655 69.744 91.2455 69.84V68.508C91.1015 68.472 90.9695 68.46 90.7775 68.46ZM97.6682 68.46C97.3082 68.46 96.8882 68.604 96.5762 68.892L96.0722 69.78V68.616H94.4162V75H96.0722V72.072C96.0722 70.356 96.7562 69.744 98.1362 69.84V68.508C97.9922 68.472 97.8602 68.46 97.6682 68.46ZM102.683 75H104.303C104.207 74.292 104.183 73.86 104.183 73.38V71.316C104.183 70.968 104.171 70.632 104.147 70.332C104.051 69.228 103.379 68.448 101.591 68.448C100.067 68.448 98.9028 69.264 98.8548 70.704L100.463 70.692C100.511 69.996 100.871 69.612 101.531 69.612C102.179 69.612 102.467 69.936 102.515 70.38C102.539 70.596 102.539 70.788 102.539 70.98V71.112H102.131C99.8148 71.112 98.6147 71.904 98.6147 73.308C98.6147 74.52 99.5628 75.168 100.667 75.168C101.267 75.168 101.807 75.048 102.251 74.748L102.563 74.064L102.683 75ZM101.303 74.004C100.715 74.004 100.331 73.74 100.331 73.176C100.331 72.336 101.219 72.036 102.539 72.132V72.648C102.539 73.536 101.975 74.004 101.303 74.004ZM111.917 66.18H110.261V69.468L109.841 68.808C109.517 68.58 108.869 68.448 108.341 68.448C106.697 68.448 105.281 69.612 105.281 71.928C105.281 73.812 106.337 75.168 108.125 75.168C108.773 75.168 109.421 75 109.781 74.724L110.261 74.016V75H111.917V66.18ZM108.605 74.004C107.621 74.004 106.997 73.128 106.997 71.82C106.997 70.344 107.705 69.612 108.665 69.612C109.433 69.612 110.261 70.128 110.261 71.568V71.88C110.261 73.44 109.517 74.004 108.605 74.004ZM114.275 66.24C113.735 66.24 113.363 66.6 113.363 67.116C113.363 67.644 113.735 67.992 114.275 67.992C114.815 67.992 115.187 67.644 115.187 67.116C115.187 66.6 114.815 66.24 114.275 66.24ZM115.103 75V68.616H113.447V75H115.103ZM119.515 68.448C117.391 68.448 116.203 69.864 116.203 71.808C116.203 73.74 117.391 75.168 119.515 75.168C121.639 75.168 122.827 73.74 122.827 71.808C122.827 69.864 121.639 68.448 119.515 68.448ZM119.515 74.004C118.519 74.004 117.919 73.176 117.919 71.808C117.919 70.428 118.519 69.612 119.515 69.612C120.511 69.612 121.111 70.428 121.111 71.808C121.111 73.176 120.511 74.004 119.515 74.004ZM124.128 75.36L127.14 66.36H126.108L123.096 75.36H124.128Z" fill="black"/>
<path d="M36.518 49.212C36.022 44.438 34.41 40.904 30.194 39.292C35.278 37.866 38.564 34.394 38.564 28.876C38.564 21.498 33.542 18.274 27.342 17.53C25.234 17.282 23.622 17.22 21.142 17.22H5.518V60H14.074V42.764H19.034C20.15 42.764 21.204 42.764 22.382 42.826C25.854 43.074 27.59 45.864 28.148 50.452C28.582 54.482 29.202 57.086 30.256 60H39.618C37.882 57.582 37.076 54.42 36.518 49.212ZM14.074 36.378V23.916H20.336C21.886 23.916 22.94 23.978 23.932 24.102C27.28 24.536 29.574 26.024 29.574 30.178C29.574 34.332 26.846 36.006 23.436 36.316C22.506 36.378 21.452 36.378 19.964 36.378H14.074ZM63.6304 60H72.0004C71.5044 56.342 71.3804 54.11 71.3804 51.63V40.966C71.3804 39.168 71.3184 37.432 71.1944 35.882C70.6984 30.178 67.2264 26.148 57.9884 26.148C50.1144 26.148 44.1004 30.364 43.8524 37.804L52.1604 37.742C52.4084 34.146 54.2684 32.162 57.6784 32.162C61.0264 32.162 62.5144 33.836 62.7624 36.13C62.8864 37.246 62.8864 38.238 62.8864 39.23V39.912H60.7784C48.8124 39.912 42.6124 44.004 42.6124 51.258C42.6124 57.52 47.5104 60.868 53.2144 60.868C56.3144 60.868 59.1044 60.248 61.3984 58.698L63.0104 55.164L63.6304 60ZM56.5004 54.854C53.4624 54.854 51.4784 53.49 51.4784 50.576C51.4784 46.236 56.0664 44.686 62.8864 45.182V47.848C62.8864 52.436 59.9724 54.854 56.5004 54.854ZM111.341 14.43H102.785V31.418L100.615 28.008C98.9409 26.83 95.5929 26.148 92.8649 26.148C84.3709 26.148 77.0549 32.162 77.0549 44.128C77.0549 53.862 82.5109 60.868 91.7489 60.868C95.0969 60.868 98.4449 60 100.305 58.574L102.785 54.916V60H111.341V14.43ZM94.2289 54.854C89.1449 54.854 85.9209 50.328 85.9209 43.57C85.9209 35.944 89.5789 32.162 94.5389 32.162C98.5069 32.162 102.785 34.828 102.785 42.268V43.88C102.785 51.94 98.9409 54.854 94.2289 54.854ZM123.526 14.74C120.736 14.74 118.814 16.6 118.814 19.266C118.814 21.994 120.736 23.792 123.526 23.792C126.316 23.792 128.238 21.994 128.238 19.266C128.238 16.6 126.316 14.74 123.526 14.74ZM127.804 60V27.016H119.248V60H127.804ZM139.809 14.74C136.709 14.74 135.097 16.29 135.097 19.266C135.097 22.242 136.709 23.792 139.809 23.792C142.847 23.792 144.459 22.242 144.459 19.266C144.459 16.29 142.847 14.74 139.809 14.74ZM144.025 27.016H135.531V60.868C135.531 61.798 135.469 62.852 135.407 63.72C135.097 66.262 133.485 67.068 129.765 66.758V72.834C130.695 72.958 131.749 73.02 132.927 73.02C140.491 73.02 143.467 69.92 143.901 64.712C143.963 63.596 144.025 61.984 144.025 60.744V27.016ZM156.1 14.74C153.31 14.74 151.388 16.6 151.388 19.266C151.388 21.994 153.31 23.792 156.1 23.792C158.89 23.792 160.812 21.994 160.812 19.266C160.812 16.6 158.89 14.74 156.1 14.74ZM160.378 60V27.016H151.822V60H160.378Z" fill="black"/>
</svg>
